<svg width="182" height="166" viewBox="0 0 182 166" fill="none" xmlns="http://www.w3.org/2000/svg">
<g id="Group">
<path id="Vector" d="M167.323 42.7656H164.387V0H17.6129V42.7656H14.6774C6.58429 42.7656 0 48.7608 0 56.1299V136.315C0 143.684 6.58429 149.68 14.6774 149.68H52.8387V160.371H41.0968V165.717H140.903V160.371H129.161V149.68H167.323C175.416 149.68 182 143.684 182 136.315V56.1299C182 48.7608 175.416 42.7656 167.323 42.7656ZM23.4839 26.7285H158.516V112.26H23.4839V26.7285ZM158.516 5.3457V21.3828H23.4839V5.3457H158.516ZM14.6774 48.1113H17.6129V117.605H164.387V48.1113H167.323C172.178 48.1113 176.129 51.709 176.129 56.1299V128.297H5.87097V56.1299C5.87097 51.709 9.82213 48.1113 14.6774 48.1113ZM123.29 160.371H58.7097V149.68H123.29V160.371ZM167.323 144.334H14.6774C9.82213 144.334 5.87097 140.736 5.87097 136.315V133.643H176.129V136.315C176.129 140.736 172.178 144.334 167.323 144.334Z" fill="#1E1E1E"/>
<path id="Vector_2" d="M35.2259 10.6914H29.355V16.0371H35.2259V10.6914Z" fill="#FF0000"/>
<path id="Vector_3" d="M46.9679 10.6914H41.0969V16.0371H46.9679V10.6914Z" fill="#63EE22"/>
<path id="Vector_4" d="M58.7098 10.6914H52.8389V16.0371H58.7098V10.6914Z" fill="#00FDFF"/>
<path id="Vector_5" d="M92.5586 37.4199H89.4411C80.5906 37.4199 73.387 43.9791 73.387 52.0377V56.1299H79.2579V52.0377C79.2579 46.9246 83.8255 42.7656 89.4411 42.7656H92.5586C98.1742 42.7656 102.742 46.9246 102.742 52.0377C102.742 55.2772 100.845 58.3243 97.7955 59.9895L88.0644 65.3084V80.1855H93.9354V68.3341L100.819 64.5734C105.627 61.9487 108.613 57.1429 108.613 52.0377C108.613 43.9791 101.409 37.4199 92.5586 37.4199Z" fill="#ED8F27"/>
<path id="Vector_6" d="M91.0001 85.5312C86.1448 85.5312 82.1936 89.1289 82.1936 93.5498C82.1936 97.9707 86.1448 101.568 91.0001 101.568C95.8553 101.568 99.8065 97.9707 99.8065 93.5498C99.8065 89.1289 95.8553 85.5312 91.0001 85.5312ZM91.0001 96.2227C89.3826 96.2227 88.0646 95.0225 88.0646 93.5498C88.0646 92.0771 89.3826 90.877 91.0001 90.877C92.6175 90.877 93.9355 92.0771 93.9355 93.5498C93.9355 95.0225 92.6175 96.2227 91.0001 96.2227Z" fill="#ED8F27"/>
<path id="Vector_7" d="M67.5163 32.0742H29.355V37.4199H67.5163V32.0742Z" fill="#1E1E1E"/>
<path id="Vector_8" d="M67.5163 42.7656H29.355V48.1113H67.5163V42.7656Z" fill="#1E1E1E"/>
<path id="Vector_9" d="M67.5163 53.457H29.355V58.8027H67.5163V53.457Z" fill="#1E1E1E"/>
<path id="Vector_10" d="M67.5163 64.1484H29.355V69.4941H67.5163V64.1484Z" fill="#1E1E1E"/>
<path id="Vector_11" d="M67.5163 74.8398H29.355V80.1855H67.5163V74.8398Z" fill="#1E1E1E"/>
<path id="Vector_12" d="M152.645 58.8027H114.484V64.1484H152.645V58.8027Z" fill="#1E1E1E"/>
<path id="Vector_13" d="M152.645 69.4941H114.484V74.8398H152.645V69.4941Z" fill="#1E1E1E"/>
<path id="Vector_14" d="M152.645 80.1855H114.484V85.5312H152.645V80.1855Z" fill="#1E1E1E"/>
<path id="Vector_15" d="M152.645 90.877H114.484V96.2227H152.645V90.877Z" fill="#1E1E1E"/>
<path id="Vector_16" d="M152.645 101.568H114.484V106.914H152.645V101.568Z" fill="#1E1E1E"/>
</g>
</svg>
