<svg width="19" height="16" viewBox="0 0 19 16" fill="none" xmlns="http://www.w3.org/2000/svg">
<path id="Vector" d="M1.88119 11.0968C1.88119 10.6692 1.46007 10.3226 0.940594 10.3226C0.421123 10.3226 0 10.6692 0 11.0968H1.88119ZM19 11.0968C19 10.6692 18.5789 10.3226 18.0594 10.3226C17.5399 10.3226 17.1188 10.6692 17.1188 11.0968H19ZM8.75831 11.6529C8.43888 11.99 8.51188 12.4765 8.92147 12.7395C9.33107 13.0024 9.92214 12.9423 10.2417 12.6052L8.75831 11.6529ZM15.1328 7.44392C15.4522 7.10679 15.3792 6.62028 14.9696 6.35726C14.56 6.09435 13.969 6.15443 13.6494 6.49156L15.1328 7.44392ZM8.75831 12.6052C9.07786 12.9423 9.66893 13.0024 10.0785 12.7395C10.4881 12.4765 10.5611 11.99 10.2417 11.6529L8.75831 12.6052ZM5.35058 6.49156C5.03108 6.15443 4.44002 6.09435 4.03042 6.35726C3.62081 6.62028 3.54776 7.10679 3.86725 7.44392L5.35058 6.49156ZM8.55941 12.129C8.55941 12.5566 8.98054 12.9032 9.5 12.9032C10.0195 12.9032 10.4406 12.5566 10.4406 12.129H8.55941ZM10.4406 0.774194C10.4406 0.346622 10.0195 0 9.5 0C8.98054 0 8.55941 0.346622 8.55941 0.774194H10.4406ZM0 11.0968V12.129H1.88119V11.0968H0ZM0 12.129C0 14.2484 2.04118 16 4.60891 16V14.4516C3.12474 14.4516 1.88119 13.4304 1.88119 12.129H0ZM4.60891 16H14.3911V14.4516H4.60891V16ZM14.3911 16C16.9588 16 19 14.2484 19 12.129H17.1188C17.1188 13.4304 15.8752 14.4516 14.3911 14.4516V16ZM19 12.129V11.0968H17.1188V12.129H19ZM10.2417 12.6052L15.1328 7.44392L13.6494 6.49156L8.75831 11.6529L10.2417 12.6052ZM10.2417 11.6529L5.35058 6.49156L3.86725 7.44392L8.75831 12.6052L10.2417 11.6529ZM10.4406 12.129V0.774194H8.55941V12.129H10.4406Z" fill="white"/>
</svg>
