<svg width="23" height="24" viewBox="0 0 23 24" fill="none" xmlns="http://www.w3.org/2000/svg">
<path id="Vector" d="M22.2296 22.2983L18.3675 10.455C18.0963 9.67583 17.4892 9.19417 16.7917 9.19417C16.0942 9.19417 15.5 9.67583 15.2029 10.4833L11.3538 22.2983C11.1729 22.8508 11.4313 23.46 11.935 23.6583C12.4388 23.8567 12.9942 23.5733 13.175 23.0208L13.9758 20.57H19.5946L20.3954 23.0208C20.5375 23.46 20.9121 23.7292 21.3125 23.7292C21.4158 23.7292 21.5321 23.715 21.6354 23.6725C22.1392 23.4742 22.3975 22.865 22.2167 22.3125L22.2296 22.2983ZM14.6863 18.4308L16.8046 11.9283L18.9229 18.4308H14.6863ZM11.3925 5.97833C8.47332 11.0358 5.83833 14.0958 2.635 16.1358C2.48 16.235 2.31208 16.2775 2.15708 16.2775C1.82125 16.2775 1.49833 16.0933 1.3175 15.7533C1.04625 15.2433 1.20125 14.5917 1.66625 14.3083C4.37874 12.58 6.60042 10.1008 9.09333 5.9925H0.96875C0.439167 5.9925 0 5.51083 0 4.93C0 4.34917 0.439167 3.8675 0.96875 3.8675H5.8125V1.0625C5.8125 0.481667 6.25167 0 6.78125 0C7.31082 0 7.75 0.481667 7.75 1.0625V3.8675H12.5938C13.1233 3.8675 13.5625 4.34917 13.5625 4.93C13.5625 5.51083 13.1233 5.9925 12.5938 5.9925H11.3796L11.3925 5.97833ZM11.4442 16.2775C11.2762 16.2775 11.1083 16.235 10.9533 16.1358C10.1138 15.5975 9.3 15.0025 8.5379 14.3792C8.11165 14.025 8.02125 13.3592 8.34417 12.8917C8.66708 12.4242 9.27417 12.325 9.70042 12.6792C10.3979 13.26 11.16 13.7983 11.935 14.2942C12.4 14.5917 12.555 15.2433 12.2838 15.7533C12.1029 16.0933 11.78 16.2775 11.4442 16.2775Z" fill="black"/>
</svg>
