<svg width="67" height="46" viewBox="0 0 67 46" fill="none" xmlns="http://www.w3.org/2000/svg">
<g id="Flag">
<g id="Group 4">
<path id="Vector" d="M0 38.9226C0 40.7995 0.773511 42.5996 2.15037 43.9268C3.52723 45.2539 5.39465 45.9995 7.34182 45.9995H58.7346C60.6817 45.9995 62.5492 45.2539 63.926 43.9268C65.3029 42.5996 66.0764 40.7995 66.0764 38.9226V31.8457H0V38.9226Z" fill="#138808"/>
<path id="Vector_2" d="M0 14.1543H66.0764V31.8466H0V14.1543Z" fill="#EEEEEE"/>
<path id="Vector_3" d="M66.0764 14.1538V7.07692C66.0764 5.20001 65.3029 3.39996 63.926 2.07278C62.5492 0.745602 60.6817 0 58.7346 0H7.34182C5.39465 0 3.52723 0.745602 2.15037 2.07278C0.773511 3.39996 0 5.20001 0 7.07692L0 14.1538H66.0764Z" fill="#FF9933"/>
<path id="Vector_4" d="M33.0382 30.0767C37.093 30.0767 40.3801 26.9083 40.3801 22.9998C40.3801 19.0913 37.093 15.9229 33.0382 15.9229C28.9835 15.9229 25.6964 19.0913 25.6964 22.9998C25.6964 26.9083 28.9835 30.0767 33.0382 30.0767Z" fill="#000080"/>
<path id="Vector_5" d="M33.0382 28.3078C36.0793 28.3078 38.5446 25.9314 38.5446 23.0001C38.5446 20.0687 36.0793 17.6924 33.0382 17.6924C29.9971 17.6924 27.5319 20.0687 27.5319 23.0001C27.5319 25.9314 29.9971 28.3078 33.0382 28.3078Z" fill="#EEEEEE"/>
<path id="Vector_6" d="M33.0382 17.6924L33.3062 21.6979L35.1435 18.0975L33.8036 21.8961L36.9312 19.2458L34.1836 22.2623L38.1243 20.969L34.3891 22.7418L38.5446 23.0001L34.3891 23.2584L38.1243 25.0294L34.1836 23.7378L36.9312 26.7526L33.8036 24.1041L35.1435 27.9026L33.3062 24.3022L33.0382 28.3078L32.7702 24.3022L30.9311 27.9026L32.2728 24.1041L29.1434 26.7526L31.8929 23.7378L27.9522 25.0294L31.6873 23.2584L27.5319 23.0001L31.6873 22.7418L27.9522 20.969L31.8929 22.2623L29.1434 19.2458L32.2728 21.8961L30.9311 18.0975L32.7702 21.6979L33.0382 17.6924Z" fill="#6666B3"/>
<path id="Vector_7" d="M33.0382 24.7694C34.0519 24.7694 34.8737 23.9773 34.8737 23.0002C34.8737 22.0231 34.0519 21.231 33.0382 21.231C32.0245 21.231 31.2028 22.0231 31.2028 23.0002C31.2028 23.9773 32.0245 24.7694 33.0382 24.7694Z" fill="#000080"/>
</g>
</g>
</svg>
