<svg width="250" height="250" viewBox="0 0 250 250" fill="none" xmlns="http://www.w3.org/2000/svg">
<g id="Group">
<path id="Vector" d="M250 78.3383V50.3784C250 36.8614 232.818 28.3438 219.287 35.1949L166.667 61.4883V121.111C166.667 137.036 157.002 151.664 141.108 159.626L83.5481 188.512V232.396C83.5481 245.913 100.73 254.43 114.261 247.579L224.442 192.4C240.335 184.438 250 169.81 250 153.886V131.296C250 122.963 244.845 115.371 236.684 111.298L248.067 87.2263C249.356 84.4488 250 81.301 250 78.3383Z" fill="#EF59A5"/>
<path id="Vector_2" d="M166.667 121.112V61.4885L108.892 90.3743C92.9983 98.3364 83.3334 112.964 83.3334 128.889V188.512L140.893 159.626C156.787 151.664 166.667 137.036 166.667 121.112Z" fill="#FD9D60"/>
<path id="Vector_3" d="M0 171.662V199.621C0 213.139 17.1821 221.656 30.713 214.805L83.3333 188.512V128.888C83.3333 112.964 93.213 98.3362 109.106 90.3741L166.667 61.4884V17.6043C166.667 4.08721 149.484 -4.43038 135.954 2.42073L25.7732 57.4147C9.87972 65.3768 0 80.0049 0 95.9291V118.704" fill="#A053CF"/>
</g>
</svg>
