<svg width="59" height="52" viewBox="0 0 59 52" fill="none" xmlns="http://www.w3.org/2000/svg">
<g id="Group 20">
<path id="Rectangle 29" d="M58 1H10C5.02944 1 1 5.02944 1 10V42C1 46.9706 5.02944 51 10 51H58V1Z" stroke="black" stroke-width="2"/>
<path id="Vector" d="M16 20.6154H34.5625C37.7168 20.6154 39.294 20.6154 40.4688 21.2337C41.2383 21.6388 41.8774 22.2214 42.3217 22.9231C43 23.9941 43 25.432 43 28.3077C43 31.1834 43 32.6212 42.3218 33.6923C41.8774 34.394 41.2384 34.9766 40.4688 35.3817C39.294 36 37.7168 36 34.5625 36H22.75M16 20.6154L21.0625 16M16 20.6154L21.0625 25.2308" stroke="black" stroke-width="2.5" stroke-linecap="round" stroke-linejoin="round"/>
</g>
</svg>
