<svg width="59" height="52" viewBox="0 0 59 52" fill="none" xmlns="http://www.w3.org/2000/svg">
<g id="Group 19">
<path id="Rectangle 28" d="M1 1H49C53.9706 1 58 5.02944 58 10V42C58 46.9706 53.9706 51 49 51H1V1Z" stroke="black" stroke-width="2"/>
<path id="Vector" d="M43 20.6154H24.4375C21.2832 20.6154 19.706 20.6154 18.5312 21.2337C17.7617 21.6388 17.1226 22.2214 16.6783 22.9231C16 23.9941 16 25.432 16 28.3077C16 31.1834 16 32.6212 16.6782 33.6923C17.1226 34.394 17.7616 34.9766 18.5312 35.3817C19.706 36 21.2832 36 24.4375 36H36.25M43 20.6154L37.9375 16M43 20.6154L37.9375 25.2308" stroke="black" stroke-width="2.5" stroke-linecap="round" stroke-linejoin="round"/>
</g>
</svg>
