<svg width="40" height="40" viewBox="0 0 40 40" fill="none" xmlns="http://www.w3.org/2000/svg">
<path id="Vector" d="M12.2857 38H7.14286C4.30253 38 2 35.9022 2 33.3143V16.7266C2 15.3586 2.65605 14.0591 3.79594 13.1689L16.653 3.12805C18.579 1.62398 21.421 1.62398 23.347 3.12805L36.2041 13.1689C37.344 14.0591 38 15.3586 38 16.7266V33.3143C38 35.9022 35.6975 38 32.8571 38H27.7143M12.2857 38V23.9428C12.2857 22.6489 13.437 21.6 14.8571 21.6H25.1429C26.5631 21.6 27.7143 22.6489 27.7143 23.9428V38M12.2857 38H27.7143" stroke="#0D0C0C" stroke-width="2.5" stroke-linecap="round" stroke-linejoin="round"/>
</svg>
