<svg width="21" height="21" viewBox="0 0 21 21" fill="none" xmlns="http://www.w3.org/2000/svg">
<g id="Impoet Button">
<path id="Vector" d="M10.511 -6.05583e-05C10.6543 -0.00127649 10.7965 0.021698 10.9289 0.0676451C11.0613 0.113593 11.1812 0.181542 11.2814 0.26736L17.4443 5.42125C17.5471 5.505 17.6288 5.60528 17.6847 5.7159C17.7405 5.82651 17.7692 5.94539 17.7692 6.06548C17.7692 6.18558 17.7405 6.30446 17.6847 6.41507C17.6288 6.52569 17.5471 6.62585 17.4443 6.70972C17.2399 6.88038 16.9628 6.97629 16.6739 6.97629C16.385 6.97629 16.1079 6.88038 15.9035 6.70972L10.511 2.20007L5.11847 6.70972C5.01862 6.7993 4.89826 6.87114 4.76454 6.92098C4.63082 6.97082 4.48648 6.99756 4.34011 6.99975C4.19375 7.00194 4.04839 6.97933 3.91264 6.9335C3.77688 6.88767 3.65362 6.81948 3.55013 6.73281C3.4465 6.64627 3.36495 6.54319 3.31016 6.42966C3.25536 6.31613 3.22832 6.19457 3.23094 6.07217C3.23355 5.94976 3.26553 5.82906 3.32513 5.71723C3.38472 5.6054 3.47062 5.50476 3.57775 5.42125L9.74064 0.26736C9.84123 0.18215 9.96129 0.114566 10.0936 0.0686188C10.2258 0.0226717 10.3678 -0.000668526 10.511 -6.05583e-05Z" fill="black"/>
<path id="Vector_2" d="M10.7019 15.7501C10.4342 15.7501 10.1773 15.6579 9.98804 15.4938C9.79864 15.3298 9.69229 15.1072 9.69229 14.8751V4.37511C9.69229 4.14305 9.79864 3.92049 9.98804 3.75639C10.1773 3.5923 10.4342 3.50011 10.7019 3.50011C10.9697 3.50011 11.2265 3.5923 11.4158 3.75639C11.6052 3.92049 11.7115 4.14305 11.7115 4.37511V14.8751C11.708 15.1062 11.6006 15.3271 11.412 15.4905C11.2234 15.654 10.9686 15.7471 10.7019 15.7501Z" fill="black"/>
<path id="Vector_3" d="M16.5 20.9999H4.5C3.30653 20.9999 2.16193 20.506 1.31802 19.6269C0.474108 18.7479 0 17.5556 0 16.3124V13.1874C0 12.9388 0.0948237 12.7003 0.263604 12.5245C0.432396 12.3486 0.661308 12.2499 0.899999 12.2499C1.1387 12.2499 1.36762 12.3486 1.5364 12.5245C1.70519 12.7003 1.8 12.9388 1.8 13.1874V16.3124C1.8 17.0583 2.08447 17.7736 2.59081 18.3011C3.09716 18.8285 3.78392 19.1249 4.5 19.1249H16.5C17.216 19.1249 17.9028 18.8285 18.4092 18.3011C18.9155 17.7736 19.2 17.0583 19.2 16.3124V13.1874C19.2 12.9388 19.2948 12.7003 19.4636 12.5245C19.6324 12.3486 19.8613 12.2499 20.1 12.2499C20.3387 12.2499 20.5676 12.3486 20.7364 12.5245C20.9052 12.7003 21 12.9388 21 13.1874V16.3124C21 17.5556 20.5259 18.7479 19.6819 19.6269C18.8381 20.506 17.6935 20.9999 16.5 20.9999Z" fill="black"/>
</g>
</svg>
