<svg width="203" height="234" viewBox="0 0 203 234" fill="none" xmlns="http://www.w3.org/2000/svg">
<g id="question-and-answer-svgrepo-com 1">
<path id="Vector" d="M42.7036 170.851C42.7036 175.518 45.9859 179.302 50.0352 179.302C45.9861 179.302 42.7036 183.086 42.7036 187.753C42.7036 183.086 39.4212 179.302 35.3721 179.302C39.421 179.302 42.7036 175.518 42.7036 170.851Z" fill="#ED8F27"/>
<path id="Vector_2" d="M45.1972 194.782H40.2106V187.754C40.2106 184.677 38.0402 182.176 35.3715 182.176H29.2729V176.428H35.3715C38.0402 176.428 40.2106 173.926 40.2106 170.85V163.822H45.1972V170.85C45.1972 173.926 47.3673 176.428 50.0343 176.428V182.176C47.3673 182.176 45.1972 184.677 45.1972 187.754V194.782ZM41.9051 179.302C42.1865 179.59 42.4532 179.898 42.7039 180.222C42.9533 179.897 43.2195 179.59 43.5008 179.302C43.2195 179.013 42.9534 178.706 42.7039 178.381C42.4533 178.705 42.1866 179.013 41.9051 179.302ZM56.133 182.176H50.0343V176.428H56.133V182.176Z" fill="#ED8F27"/>
<path id="Vector_3" d="M143.039 30.7131C143.039 35.811 146.624 39.9435 151.047 39.9435C146.624 39.9435 143.039 44.0762 143.039 49.1742C143.039 44.0762 139.454 39.9435 135.031 39.9435C139.454 39.9435 143.039 35.811 143.039 30.7131Z" fill="#ED8F27"/>
<path id="Vector_4" d="M145.762 56.851H140.316V49.1749C140.316 45.815 137.945 43.0827 135.031 43.0827H128.37V36.8044H135.031C137.945 36.8044 140.316 34.0718 140.316 30.712V23.0361H145.762V30.712C145.762 34.0718 148.133 36.8044 151.046 36.8044V43.0827C148.133 43.0827 145.762 45.815 145.762 49.1749V56.851ZM142.167 39.9435C142.474 40.259 142.765 40.5946 143.039 40.9488C143.311 40.5941 143.602 40.2584 143.909 39.9435C143.602 39.6287 143.311 39.2929 143.039 38.9381C142.765 39.2923 142.474 39.628 142.167 39.9435ZM157.707 43.0827H151.046V36.8044H157.707V43.0827Z" fill="#ED8F27"/>
<path id="Vector_5" d="M96.8305 192.428H104.717V199.235H96.8305V192.428ZM147.971 58.5857H168.779V65.3932H147.971V58.5857ZM174.363 58.5857H181.367V65.3932H174.363V58.5857ZM112.397 192.428H117.046V199.235H112.397V192.428ZM85.9446 192.428H90.5932V199.235H85.9446V192.428Z" fill="#300604"/>
<path id="Vector_6" d="M180.679 85.1428V162.746L160.343 162.602C160.343 162.602 139.68 190.568 139.917 190.525C140.154 190.482 139.917 162.346 139.917 162.346L86.4294 162.746V85.1428H180.679Z" fill="#FCE3C3"/>
<path id="Vector_7" d="M138.572 165.155H83.9834V82.7029H182.796V165.155H161.326L138.572 195.472V165.155ZM178.562 87.5835H88.2175V160.275H142.806V182.371L159.391 160.275H178.562V87.5835Z" fill="#300604"/>
<path id="Vector_8" d="M138.09 196.962V165.71H83.502V82.1477H183.278V165.71H161.546L138.09 196.962ZM84.465 164.6H139.053V193.983L161.106 164.6H182.315V83.2578H84.465V164.6ZM142.324 183.861V160.83H87.7362V87.0286H179.044V160.83H159.611L142.324 183.861ZM88.6991 159.719H143.287V180.881L159.171 159.719H178.081V88.1385H88.6991V159.719Z" fill="#300604"/>
<path id="Vector_9" d="M130.503 85.2142V56.2119H21.98V134.833H39.305L56.846 157.895L56.6143 134.833H85.9416V85.2142H130.503Z" fill="#228E9D"/>
<path id="Vector_10" d="M57.4882 161.539L37.1882 137.274H19.863V53.771H132.619V87.6548H88.0585V137.274H57.5822L57.4882 161.539ZM24.0973 132.393H39.1278L53.8479 150.179L53.8931 132.393H83.8243V82.7742H128.385V58.6516H24.0973V132.393Z" fill="#300604"/>
<path id="Vector_11" d="M57.9645 162.908L36.984 137.829H19.3818V53.2161H133.101V88.21H88.54V137.829H58.0617L57.9645 162.908ZM20.3447 136.719H37.3929L57.0122 160.171L57.103 136.719H87.577V87.0999H132.138V54.326H20.3447V136.719ZM54.326 151.561L38.922 132.948H23.6161V58.0967H128.867V83.3292H84.306V132.948H54.3732L54.326 151.561ZM24.5788 131.838H39.3339L53.3699 148.798L53.4131 131.838H83.3431V82.2193H127.904V59.2068H24.5788V131.838Z" fill="#300604"/>
<path id="Vector_12" d="M63.627 102.904C64.3994 103.507 65.2429 104.093 66.158 104.661C67.0729 105.229 67.6787 105.682 67.9759 106.017C68.2729 106.353 68.4215 106.829 68.4215 107.445C68.4215 107.883 68.2461 108.321 67.8958 108.76C67.5451 109.198 67.1205 109.417 66.6215 109.417C66.2173 109.417 65.7272 109.267 65.1511 108.965C64.5746 108.664 63.8974 108.226 63.1192 107.65C62.3409 107.075 61.4882 106.404 60.5614 105.637C58.8385 106.65 56.7233 107.157 54.2163 107.157C52.1843 107.157 50.3633 106.784 48.7533 106.037C47.143 105.291 45.7916 104.216 44.6985 102.812C43.6052 101.408 42.7825 99.7405 42.23 97.809C41.6775 95.8776 41.4011 93.7755 41.4011 91.5016C41.4011 89.1869 41.6892 87.0636 42.2655 85.1324C42.8417 83.2012 43.6763 81.5575 44.7697 80.2015C45.8628 78.8454 47.1938 77.808 48.7621 77.0888C50.3305 76.3699 52.1129 76.0103 54.1092 76.0103C56.8184 76.0103 59.1444 76.6439 61.0872 77.9106C63.0299 79.1777 64.5003 80.9791 65.4985 83.3141C66.4966 85.6497 66.9956 88.3924 66.9956 91.5427C66.9956 96.3232 65.8727 100.11 63.627 102.904ZM59.4741 99.5759C60.2107 98.6036 60.7543 97.453 61.105 96.1244C61.4555 94.7963 61.6307 93.2552 61.6307 91.5018C61.6307 89.2966 61.3217 87.3858 60.704 85.7695C60.086 84.1536 59.2039 82.9311 58.0572 82.1023C56.9104 81.2737 55.5945 80.8594 54.1092 80.8594C53.0516 80.8594 52.0743 81.0888 51.1772 81.5476C50.28 82.0067 49.5076 82.6745 48.8602 83.5508C48.2123 84.4276 47.7017 85.5471 47.3274 86.91C46.9531 88.2731 46.766 89.8037 46.766 91.502C46.766 94.9672 47.4669 97.6347 48.8691 99.5044C50.2711 101.374 52.0418 102.309 54.1804 102.309C55.0596 102.309 55.9628 102.096 56.8896 101.672C56.3309 101.192 55.6331 100.713 54.7954 100.234C53.9576 99.7544 53.3843 99.3847 53.0754 99.1244C52.7663 98.8643 52.6121 98.4946 52.6121 98.0149C52.6121 97.6041 52.7606 97.2414 53.0578 96.9261C53.3547 96.6112 53.6816 96.4535 54.0381 96.4535C55.1191 96.453 56.9312 97.4944 59.4741 99.5759Z" fill="#ED8F27"/>
<path id="Vector_13" d="M66.6212 109.972C66.1436 109.972 65.5975 109.808 64.9518 109.471C64.3571 109.16 63.6529 108.704 62.8589 108.117C62.1411 107.587 61.3537 106.97 60.5153 106.281C58.7795 107.231 56.6621 107.712 54.2162 107.712C52.1321 107.712 50.2337 107.322 48.5736 106.552C46.9018 105.778 45.4775 104.644 44.3402 103.183C43.2076 101.728 42.3437 99.9789 41.7727 97.9831C41.2067 96.0048 40.9197 93.8241 40.9197 91.5019C40.9197 89.1359 41.2192 86.9321 41.8104 84.9522C42.4059 82.9564 43.2829 81.2308 44.4171 79.8241C45.5538 78.4139 46.956 77.3203 48.5843 76.5735C50.2026 75.8317 52.0613 75.4556 54.1095 75.4556C56.8897 75.4556 59.3172 76.1192 61.3246 77.4279C63.3438 78.745 64.8935 80.6426 65.9307 83.0692C66.957 85.4709 67.4774 88.3219 67.4774 91.5431C67.4774 96.1746 66.4273 99.9554 64.3545 102.794C65.0159 103.284 65.6937 103.744 66.3865 104.173C67.3497 104.771 67.9799 105.245 68.313 105.621C68.7047 106.064 68.9032 106.677 68.9032 107.445C68.9032 108.025 68.6835 108.594 68.2501 109.136C67.8055 109.691 67.2575 109.972 66.6212 109.972ZM60.6037 104.989L60.842 105.186C61.7549 105.942 62.6084 106.613 63.3787 107.183C64.1338 107.741 64.797 108.171 65.3495 108.459C65.8605 108.727 66.2883 108.862 66.6212 108.862C66.9877 108.862 67.2801 108.71 67.5416 108.383C67.8059 108.053 67.9399 107.737 67.9399 107.445C67.9399 106.98 67.8414 106.642 67.6386 106.413C67.4576 106.208 67.0137 105.823 65.9293 105.149C65.0033 104.574 64.1376 103.973 63.3567 103.364L62.8924 103.001L63.2735 102.527C65.4236 99.8519 66.5139 96.1561 66.5139 91.5428C66.5139 88.4933 66.0269 85.8073 65.0664 83.5594C64.1162 81.3369 62.6976 79.599 60.8498 78.3941C58.9889 77.1806 56.721 76.5655 54.1089 76.5655C52.1832 76.5655 50.444 76.9151 48.9398 77.6048C47.4452 78.2901 46.1608 79.291 45.1222 80.5796C44.0801 81.8721 43.272 83.4648 42.7205 85.3133C42.1642 87.1766 41.8821 89.2591 41.8821 91.5019C41.8821 93.706 42.1527 95.7695 42.6868 97.6355C43.2159 99.4849 44.013 101.102 45.0564 102.441C46.0946 103.775 47.3988 104.812 48.9326 105.523C50.4779 106.239 52.2556 106.602 54.216 106.602C56.6341 106.602 58.6953 106.111 60.3423 105.143L60.6037 104.989ZM54.1803 102.863C51.9051 102.863 49.9956 101.855 48.5046 99.867C47.0313 97.9027 46.2843 95.0883 46.2843 91.5019C46.2843 89.7547 46.4808 88.1533 46.8681 86.7424C47.2603 85.3149 47.807 84.1197 48.4933 83.191C49.185 82.2546 50.0222 81.5311 50.9817 81.0405C51.9364 80.5522 52.9887 80.3044 54.1089 80.3044C55.6788 80.3044 57.0931 80.7512 58.3127 81.6323C59.5368 82.5172 60.4896 83.8341 61.1441 85.5459C61.7863 87.2262 62.112 89.23 62.112 91.5019C62.112 93.3015 61.928 94.9109 61.5654 96.2861C61.1965 97.6842 60.6148 98.9141 59.8365 99.9412L59.5503 100.319L59.1952 100.029C56.1457 97.5322 54.7074 97.0082 54.0378 97.0082C53.8044 97.0082 53.5903 97.115 53.3836 97.3343C53.1857 97.5443 53.0935 97.7605 53.0935 98.0149C53.0935 98.3176 53.1756 98.5215 53.3592 98.6762C53.6446 98.917 54.1997 99.2735 55.0093 99.7367C55.8695 100.229 56.5988 100.731 57.1771 101.227L57.869 101.821L57.0675 102.188C56.0882 102.636 55.1168 102.863 54.1803 102.863ZM54.1091 81.4141C53.1241 81.4141 52.2034 81.6296 51.3724 82.0546C50.5459 82.4776 49.8239 83.1019 49.2266 83.9104C48.624 84.7258 48.1395 85.7913 47.7862 87.0772C47.4286 88.3793 47.2472 89.868 47.2472 91.5015C47.2472 94.8136 47.9154 97.3837 49.2332 99.1407C50.5513 100.899 52.1695 101.753 54.1803 101.753C54.708 101.753 55.2514 101.669 55.8041 101.501C55.406 101.224 54.998 100.967 54.5809 100.73C53.7105 100.232 53.1249 99.8533 52.7908 99.5717C52.3589 99.2084 52.1303 98.6698 52.1303 98.0144C52.1303 97.444 52.3325 96.9404 52.7311 96.5172C53.1187 96.1063 53.5582 95.8979 54.0376 95.8979C55.1761 95.8979 56.9275 96.8563 59.3851 98.8256C59.9374 97.9989 60.3601 97.0382 60.644 95.9626C60.979 94.6925 61.1489 93.1916 61.1489 91.5017C61.1489 89.3845 60.8509 87.5312 60.263 85.9933C59.6875 84.4883 58.859 83.3373 57.801 82.5725C56.7376 81.8037 55.4952 81.4141 54.1091 81.4141Z" fill="#ED8F27"/>
<path id="Vector_14" d="M123.788 145.646L117.212 142.429L134.569 95.2432L151.813 142.44L145.227 145.635L134.546 116.398L123.788 145.646Z" fill="#B12800"/>
<path id="Vector_15" d="M125.412 126.276H143.038V134.511H125.412V126.276Z" fill="#B12800"/>
</g>
</svg>
