<svg width="205" height="199" viewBox="0 0 205 199" fill="none" xmlns="http://www.w3.org/2000/svg">
<g id="faq-svgrepo-com 1" clip-path="url(#clip0_322_192)">
<g id="Group">
<g id="Group_2">
<path id="Vector" d="M102.5 195.036C156.854 195.036 200.916 152.263 200.916 99.5C200.916 46.737 156.854 3.96411 102.5 3.96411C48.1461 3.96411 4.08362 46.737 4.08362 99.5C4.08362 152.263 48.1461 195.036 102.5 195.036Z" fill="#AEF7F9"/>
<path id="Vector_2" d="M102.5 199C75.1215 199 49.3813 188.65 30.0215 169.857C10.6616 151.064 0 126.077 0 99.5C0 72.9228 10.6616 47.936 30.0215 29.1428C49.3813 10.3496 75.1215 0 102.5 0C129.879 0 155.619 10.3496 174.978 29.1428C194.338 47.936 205 72.9228 205 99.5C205 126.077 194.338 151.064 174.978 169.857C155.619 188.65 129.879 199 102.5 199ZM102.5 7.92829C50.4847 7.92829 8.16733 49.0071 8.16733 99.5C8.16733 149.993 50.4847 191.072 102.5 191.072C154.515 191.072 196.833 149.993 196.833 99.5C196.833 49.0071 154.515 7.92829 102.5 7.92829Z" fill="black"/>
</g>
<g id="Group_3">
<g id="Group_4">
<path id="Vector_3" d="M151.096 67.5329C151.096 41.5214 129.296 20.3596 102.5 20.3596C75.7044 20.3596 53.9045 41.5214 53.9045 67.5329C53.9045 73.0062 58.4754 77.4433 64.1137 77.4433C69.752 77.4433 74.3229 73.0062 74.3229 67.5329C74.3229 52.4505 86.963 40.1803 102.5 40.1803C118.037 40.1803 130.677 52.4505 130.677 67.5329C130.677 82.7243 118.037 95.0837 102.5 95.0837C96.8618 95.0837 92.291 99.5208 92.291 104.994V132.26C92.291 137.733 96.8618 142.17 102.5 142.17C108.139 142.17 112.709 137.733 112.709 132.26V113.849C134.619 109.265 151.096 90.2407 151.096 67.5329Z" fill="#FFF9E6"/>
<path id="Vector_4" d="M102.5 146.135C94.619 146.135 88.2073 139.911 88.2073 132.26V104.994C88.2073 97.3439 94.619 91.1199 102.5 91.1199C115.785 91.1199 126.594 80.5392 126.594 67.5332C126.594 54.6367 115.785 44.1448 102.5 44.1448C89.2147 44.1448 78.4065 54.6367 78.4065 67.5332C78.4065 75.1836 71.9947 81.4077 64.1136 81.4077C56.2326 81.4077 49.8208 75.1836 49.8208 67.5332C49.8208 39.3359 73.4526 16.3958 102.5 16.3958C131.548 16.3958 155.179 39.3359 155.179 67.5332C155.179 79.3289 150.955 90.8562 143.284 99.992C136.427 108.159 127.114 114.097 116.793 116.944V132.261C116.793 139.91 110.381 146.135 102.5 146.135ZM102.5 36.2161C120.289 36.2161 134.761 50.2646 134.761 67.5328C134.761 84.91 120.289 99.0477 102.5 99.0477C99.1225 99.0477 96.3746 101.715 96.3746 104.994V132.26C96.3746 135.538 99.1225 138.206 102.5 138.206C105.878 138.206 108.626 135.538 108.626 132.26V113.849C108.626 111.982 109.968 110.367 111.849 109.974C132.224 105.711 147.012 87.8617 147.012 67.5328C147.012 43.7071 127.044 24.3236 102.5 24.3236C77.956 24.3236 57.9881 43.7071 57.9881 67.5328C57.9881 70.8115 60.736 73.479 64.1136 73.479C67.4912 73.479 70.2391 70.8115 70.2391 67.5328C70.2391 50.265 84.7112 36.2161 102.5 36.2161Z" fill="black"/>
</g>
<g id="Group_5">
<path id="Vector_5" d="M102.5 157.234C96.8619 157.234 92.291 161.671 92.291 167.144V168.73C92.291 174.203 96.8619 178.641 102.5 178.641C108.138 178.641 112.709 174.203 112.709 168.73V167.144C112.709 161.671 108.138 157.234 102.5 157.234Z" fill="#FFF9E6"/>
<path id="Vector_6" d="M102.5 182.605C94.619 182.605 88.2073 176.381 88.2073 168.73V167.145C88.2073 159.494 94.619 153.27 102.5 153.27C110.381 153.27 116.793 159.494 116.793 167.145V168.73C116.793 176.38 110.381 182.605 102.5 182.605ZM102.5 161.198C99.1225 161.198 96.3746 163.866 96.3746 167.145V168.73C96.3746 172.009 99.1225 174.676 102.5 174.676C105.878 174.676 108.626 172.009 108.626 168.73V167.145C108.626 163.866 105.878 161.198 102.5 161.198Z" fill="black"/>
</g>
</g>
<g id="Group_6">
<path id="Vector_7" d="M20.1217 120.114C18.2261 120.114 16.5269 118.826 16.1271 116.953C14.9102 111.248 14.2927 105.376 14.2927 99.5C14.2927 97.3106 16.121 95.5359 18.3764 95.5359C20.6318 95.5359 22.4601 97.3106 22.4601 99.5C22.4601 104.837 23.0203 110.168 24.125 115.346C24.5823 117.489 23.1629 119.587 20.9544 120.031C20.6751 120.087 20.3962 120.114 20.1217 120.114Z" fill="black"/>
</g>
<g id="Group_7">
<path id="Vector_8" d="M69.0107 178.4C68.4676 178.4 67.9155 178.294 67.3858 178.071C47.5878 169.722 31.6554 154.662 22.5243 135.664C21.5708 133.68 22.4545 131.321 24.4984 130.395C26.5414 129.47 28.972 130.328 29.9256 132.312C38.2129 149.554 52.6724 163.222 70.6401 170.799C72.7085 171.671 73.6571 174.006 72.7587 176.014C72.0898 177.508 70.5878 178.4 69.0107 178.4Z" fill="black"/>
</g>
</g>
</g>
<defs>
<clipPath id="clip0_322_192">
<rect width="205" height="199" fill="white"/>
</clipPath>
</defs>
</svg>
