<svg width="26" height="22" viewBox="0 0 26 22" fill="none" xmlns="http://www.w3.org/2000/svg">
<path id="Vector" fill-rule="evenodd" clip-rule="evenodd" d="M10.8164 0.357977C11.2516 0.835281 11.2516 1.60916 10.8164 2.08646C8.12661 5.03687 10.2198 9.77779 14.2123 9.77779H24.8857C25.5011 9.77779 26 10.325 26 11C26 11.675 25.5011 12.2222 24.8857 12.2222H14.2124C10.2199 12.2222 8.1266 16.9632 10.8164 19.9136C11.2516 20.3909 11.2516 21.1647 10.8164 21.642C10.3813 22.1193 9.6758 22.1193 9.24065 21.642L0.326363 11.8642C-0.108788 11.3869 -0.108788 10.6131 0.326363 10.1358L9.24065 0.357977C9.6758 -0.119326 10.3813 -0.119326 10.8164 0.357977Z" fill="#F53379"/>
</svg>
